#!OML:ASF H:\ManfredETheater\Project 1\Capture day 1\Session 1\subject.ASF
:FULLY-SPECIFIED
:DEGREES
76
root -0.999896 14.8039 1.65012 -190.749 19.3763 -182.017
lowerback 18.6875 -0.592616 -0.461784
upperback 2.21499 -0.121463 3.75606
thorax -8.07283 0.198058 4.34279
lowerneck -15.2386 2.39315 1.52024
upperneck 13.5039 3.54445 -3.40013
head 6.71214 1.52099 -0.979585
rclavicle -3.02153e-014 1.59028e-015
rhumerus -54.7888 -8.32343 -80.9237
rradius 76.4977
rwrist -2.07538
rhand -24.568 2.55206
rfingers 7.12502
rthumb 1.92878 -27.419
lclavicle -3.02153e-014 1.59028e-015
lhumerus -61.2997 -6.23993 99.5974
lradius 101.273
lwrist 6.65454
lhand -28.8856 -1.72301
lfingers 7.12502
lthumb -2.24123 28.245
rfemur -15.2261 -7.78504 5.16138
rtibia 86.5427
rfoot -14.7552 -18.4989
rtoes -27.3507
lfemur -47.571 5.16655 -14.2931
ltibia 61.4855
lfoot 0.23711 -2.22989
ltoes -15.1382
77
root -1.02342 14.7439 1.18873 -191.683 19.6797 -182.643
lowerback 19.1152 -0.786587 -0.544669
upperback 2.37534 -0.394973 3.5589
thorax -8.10943 0.0706018 4.25033
lowerneck -15.3539 2.60304 1.62858
upperneck 13.9655 3.81945 -3.3486
head 6.88888 1.66036 -0.948952
rclavicle -3.01159e-014 -3.33958e-014
rhumerus -56.0483 -10.1318 -77.9977
rradius 75.318
rwrist -3.91654
rhand -25.9263 1.91165
rfingers 7.12502
rthumb 0.616896 -28.0672
lclavicle -3.01159e-014 -3.33958e-014
lhumerus -57.3672 -7.14643 98.4026
lradius 100.829
lwrist 5.00702
lhand -29.1423 -1.35661
lfingers 7.12502
lthumb -2.48912 28.6086
rfemur -17.9366 -9.07005 4.98039
rtibia 88.4647
rfoot -15.7196 -17.4038
rtoes -26.1725
lfemur -47.0848 5.57143 -15.4208
ltibia 64.8692
lfoot -2.42258 -1.33514
ltoes -14.9518
78
root -1.0508 14.6901 0.728838 -192.49 20.109 -183.079
lowerback 19.4222 -0.987258 -0.352687
upperback 2.50287 -0.617246 3.40221
thorax -8.12395 -0.0398982 4.03009
lowerneck -15.4533 2.80256 1.71982
upperneck 14.5165 4.08362 -3.25647
head 7.09126 1.79783 -0.90214
rclavicle -3.32964e-014 -1.74931e-014
rhumerus -57.3489 -11.5345 -74.9626
rradius 74.5251
rwrist -5.70379
rhand -26.9443 1.34059
rfingers 7.12502
rthumb -0.366272 -28.6388
lclavicle -3.32964e-014 -1.74931e-014
lhumerus -53.7938 -7.89692 97.0251
lradius 100.475
lwrist 3.43862
lhand -29.4934 -0.93722
lfingers 7.12502
lthumb -2.82826 29.0238
rfemur -20.7805 -10.2395 5.30035
rtibia 90.1485
rfoot -16.5178 -16.0387
rtoes -26.0444
lfemur -46.3974 5.89991 -16.2514
ltibia 67.9875
lfoot -5.14783 -0.352002
ltoes -15.1105
79
root -1.07984 14.6393 0.270198 -193.204 20.6231 -183.476
lowerback 19.6191 -1.17763 -0.0790542
upperback 2.57908 -0.811891 3.26898
thorax -8.14015 -0.140914 3.78109
lowerneck -15.4746 2.99597 1.78518
upperneck 15.064 4.34983 -3.16755
head 7.27955 1.93687 -0.851604
rclavicle 5.03919e-014 -5.08889e-014
rhumerus -58.6718 -12.5098 -71.8468
rradius 74.2206
rwrist -7.4041
rhand -27.5682 0.884543
rfingers 7.12502
rthumb -0.968886 -29.093
lclavicle 5.03919e-014 -5.08889e-014
lhumerus -50.7393 -8.52228 95.5623
lradius 100.321
lwrist 2.25359
lhand -29.946 -0.500419
lfingers 7.12502
lthumb -3.26531 29.4543
rfemur -23.743 -11.3013 5.94859
rtibia 91.5728
rfoot -17.2968 -14.4884
rtoes -26.7419
lfemur -45.5533 6.1662 -16.9801
ltibia 70.8421
lfoot -7.82447 0.703797
ltoes -14.8974
80
root -1.10789 14.5893 -0.185488 -193.876 21.1361 -183.999
lowerback 19.7321 -1.34829 0.0575453
upperback 2.59676 -1.01805 3.14169
thorax -8.17365 -0.246255 3.62056
lowerneck -15.3986 3.19355 1.82022
upperneck 15.5357 4.63941 -3.13087
head 7.42815 2.08329 -0.811248
rclavicle -8.99501e-015 -1.59028e-015
rhumerus -59.9574 -13.0808 -68.6541
rradius 74.4522
rwrist -8.94597
rhand -27.7888 0.559415
rfingers 7.12502
rthumb -1.18196 -29.4171
lclavicle -8.99501e-015 -1.59028e-015
lhumerus -48.2882 -9.10007 94.0922
lradius 100.456
lwrist 1.74755
lhand -30.5153 -0.101537
lfingers 7.12502
lthumb -3.81508 29.8441
rfemur -26.8008 -12.2867 6.71986
rtibia 92.7277
rfoot -18.1321 -12.8214
rtoes -27.9731
lfemur -44.606 6.3628 -17.8304
ltibia 73.4422
lfoot -10.4494 1.77345
ltoes -14.5634
81
root -1.13266 14.5417 -0.638719 -194.561 21.6057 -184.721
lowerback 19.7783 -1.49511 -0.0407924
upperback 2.57908 -1.25116 3.01401
thorax -8.2039 -0.360246 3.60098
lowerneck -15.2288 3.4001 1.8287
upperneck 15.8614 4.9639 -3.19915
head 7.51615 2.23752 -0.798672
rclavicle 9.35282e-014 1.74931e-014
rhumerus -61.1155 -13.3254 -65.3857
rradius 75.2107
rwrist -10.2595
rhand -27.7069 0.336441
rfingers 7.12502
rthumb -1.10283 -29.6405
lclavicle 9.35282e-014 1.74931e-014
lhumerus -46.4485 -9.72134 92.6457
lradius 100.926
lwrist 2.03573
lhand -31.084 0.139414
lfingers 7.12502
lthumb -4.36422 30.0744
rfemur -29.878 -13.1724 7.51088
rtibia 93.5734
rfoot -19.0757 -11.1383
rtoes -29.5821
lfemur -43.5662 6.45826 -18.8766
ltibia 75.7865
lfoot -12.8555 2.83607
ltoes -14.6835
82
root -1.15289 14.497 -1.08892 -195.274 22.0094 -185.645
lowerback 19.7745 -1.6241 -0.385268
upperback 2.54073 -1.51927 2.88739
thorax -8.2203 -0.485513 3.73193
lowerneck -14.9832 3.62561 1.82138
upperneck 16.0156 5.33833 -3.40651
head 7.5401 2.40392 -0.825707
rclavicle 1.39646e-014 1.90833e-014
rhumerus -62.0599 -13.3534 -62.0289
rradius 76.4266
rwrist -11.2377
rhand -27.4431 0.166069
rfingers 7.12502
rthumb -0.848016 -29.812
lclavicle 1.39646e-014 1.90833e-014
lhumerus -45.1813 -10.4405 91.2235
lradius 101.723
lwrist 3.0101
lhand -31.5589 0.114476
lfingers 7.12502
lthumb -4.82277 30.0396
rfemur -32.9248 -13.9315 8.28977
rtibia 94.0831
rfoot -20.0409 -9.51016
rtoes -31.3595
lfemur -42.4362 6.4627 -20.1315
ltibia 77.8896
lfoot -15.0402 3.83879
ltoes -15.083
83
root -1.16911 14.4591 -1.53596 -196.006 22.4023 -186.669
lowerback 19.7478 -1.74394 -0.850437
upperback 2.50421 -1.80026 2.77645
thorax -8.21462 -0.61325 3.95131
lowerneck -14.7013 3.87919 1.83413
upperneck 16.0136 5.7723 -3.78585
head 7.51515 2.58626 -0.907478
rclavicle 8.43344e-014 7.95139e-015
rhumerus -62.7057 -13.2883 -58.5835
rradius 77.9892
rwrist -11.8523
rhand -27.0991 0.0348786
rfingers 7.12502
rthumb -0.515762 -29.9442
lclavicle 8.43344e-014 7.95139e-015
lhumerus -44.4222 -11.2725 89.8063
lradius 102.782
lwrist 4.35004
lhand -31.8457 -0.271969
lfingers 7.12502
lthumb -5.09974 29.6467
rfemur -35.8585 -14.4784 9.14376
rtibia 94.203
rfoot -20.9603 -8.06252
rtoes -33.0982
lfemur -41.2347 6.45354 -21.4814
ltibia 79.7916
lfoot -16.924 4.70181
ltoes -15.9474
84
root -1.1817 14.4308 -1.9794 -196.717 22.8194 -187.686
lowerback 19.6976 -1.87104 -1.31354
upperback 2.47248 -2.08584 2.69496
thorax -8.18605 -0.742536 4.20108
lowerneck -14.405 4.168 1.89193
upperneck 15.9088 6.27076 -4.32737
head 7.46521 2.79021 -1.04341
rclavicle 5.86415e-014 -3.65764e-014
rhumerus -62.9883 -13.2249 -55.072
rradius 79.7784
rwrist -12.1467
rhand -26.8544 -0.20046
rfingers 7.12502
rthumb -0.279437 -30.18
lclavicle 5.86415e-014 -3.65764e-014
lhumerus -44.1243 -12.1686 88.3818
lradius 104.007
lwrist 5.60524
lhand -31.8747 -1.00494
lfingers 7.12502
lthumb -5.12774 28.913
rfemur -38.6179 -14.7788 10.1472
rtibia 93.8985
rfoot -21.8014 -6.89838
rtoes -34.6931
lfemur -40.0162 6.49441 -22.81
ltibia 81.5396
lfoot -18.4106 5.34715
ltoes -17.3207
85
root -1.19194 14.4154 -2.41888 -197.377 23.2971 -188.625
lowerback 19.6284 -2.01255 -1.6761
upperback 2.4471 -2.36291 2.64597
thorax -8.14013 -0.869883 4.42452
lowerneck -14.1256 4.49057 2.01638
upperneck 15.7701 6.82559 -5.00069
head 7.42007 3.01604 -1.22652
rclavicle 8.97513e-014 6.99722e-014
rhumerus -62.8599 -13.257 -51.534
rradius 81.6859
rwrist -12.2785
rhand -26.8276 -0.641093
rfingers 7.12502
rthumb -0.253541 -30.6207
lclavicle 8.97513e-014 6.99722e-014
lhumerus -44.2437 -13.0663 86.9609
lradius 105.273
lwrist 6.26584
lhand -31.6584 -1.93843
lfingers 7.12502
lthumb -4.91892 27.9845
rfemur -41.137 -14.8216 11.3196
rtibia 93.1485
rfoot -22.5205 -6.05806
rtoes -36.0671
lfemur -38.831 6.63208 -24.0273
ltibia 83.1773
lfoot -19.419 5.69654
ltoes -19.1117
86
root -1.20082 14.416 -2.85475 -198.018 23.8519 -189.502
lowerback 19.5458 -2.1632 -1.93433
upperback 2.44316 -2.62431 2.61514
thorax -8.06595 -0.992491 4.60138
lowerneck -13.8808 4.8442 2.20962
upperneck 15.6434 7.42761 -5.75917
head 7.39803 3.26307 -1.44187
rclavicle -2.52457e-014 3.18055e-014
rhumerus -62.2881 -13.4662 -48.0111
rradius 83.6335
rwrist -12.4451
rhand -27.013 -1.33935
rfingers 7.12502
rthumb -0.432682 -31.3187
lclavicle -2.52457e-014 3.18055e-014
lhumerus -44.724 -13.895 85.5692
lradius 106.449
lwrist 5.95907
lhand -31.2773 -2.89474
lfingers 7.12502
lthumb -4.55087 27.0364
rfemur -43.3196 -14.6333 12.5687
rtibia 91.9561
rfoot -23.1013 -5.50956
rtoes -37.2593
lfemur -37.6897 6.90031 -25.1297
ltibia 84.729
lfoot -19.8715 5.67954
ltoes -21.2499
87
root -1.2088 14.4335 -3.2857 -198.621 24.4853 -190.28
lowerback 19.4482 -2.32492 -2.0542
upperback 2.46585 -2.86444 2.60639
thorax -7.9605 -1.1086 4.71461
lowerneck -13.6828 5.22128 2.46441
upperneck 15.5559 8.06126 -6.55349
head 7.40898 3.52646 -1.67314
rclavicle -5.3324e-014 -1.90833e-014
rhumerus -61.2647 -13.9186 -44.5738
rradius 85.5806
rwrist -12.892
rhand -27.3596 -2.25697
rfingers 7.12502
rthumb -0.767432 -32.2353
lclavicle -5.3324e-014 -1.90833e-014
lhumerus -45.4936 -14.6142 84.2425
lradius 107.418
lwrist 4.59984
lhand -30.8757 -3.75564
lfingers 7.12502
lthumb -4.16309 26.1834
rfemur -45.1251 -14.2685 13.8843
rtibia 90.3498
rfoot -23.5193 -5.1925
rtoes -38.3276
lfemur -36.6583 7.31202 -26.058
ltibia 86.2206
lfoot -19.683 5.19663
ltoes -23.5333
